<mxfile host="65bd71144e">
    <diagram id="DKFJayGLP2oGCjJ00Zy6" name="PÃ¡gina-1">
        <mxGraphModel dx="2115" dy="1506" grid="1" gridSize="10" guides="1" tooltips="1" connect="1" arrows="1" fold="1" page="1" pageScale="1" pageWidth="1169" pageHeight="827" math="0" shadow="0">
            <root>
                <mxCell id="0"/>
                <mxCell id="1" parent="0"/>
                <mxCell id="2" value="Cliente" style="swimlane;fontStyle=0;childLayout=stackLayout;horizontal=1;startSize=26;fillColor=none;horizontalStack=0;resizeParent=1;resizeParentMax=0;resizeLast=0;collapsible=1;marginBottom=0;" parent="1" vertex="1">
                    <mxGeometry x="-10" y="280" width="170" height="364" as="geometry"/>
                </mxCell>
                <mxCell id="3" value="_id: ObjectId" style="text;strokeColor=none;fillColor=none;align=left;verticalAlign=top;spacingLeft=4;spacingRight=4;overflow=hidden;rotatable=0;points=[[0,0.5],[1,0.5]];portConstraint=eastwest;" parent="2" vertex="1">
                    <mxGeometry y="26" width="170" height="26" as="geometry"/>
                </mxCell>
                <mxCell id="4" value="nome: String" style="text;strokeColor=none;fillColor=none;align=left;verticalAlign=top;spacingLeft=4;spacingRight=4;overflow=hidden;rotatable=0;points=[[0,0.5],[1,0.5]];portConstraint=eastwest;" parent="2" vertex="1">
                    <mxGeometry y="52" width="170" height="26" as="geometry"/>
                </mxCell>
                <mxCell id="38" value="cpf: String" style="text;strokeColor=none;fillColor=none;align=left;verticalAlign=top;spacingLeft=4;spacingRight=4;overflow=hidden;rotatable=0;points=[[0,0.5],[1,0.5]];portConstraint=eastwest;" parent="2" vertex="1">
                    <mxGeometry y="78" width="170" height="26" as="geometry"/>
                </mxCell>
                <mxCell id="39" value="data_nascimento: DateTime?" style="text;strokeColor=none;fillColor=none;align=left;verticalAlign=top;spacingLeft=4;spacingRight=4;overflow=hidden;rotatable=0;points=[[0,0.5],[1,0.5]];portConstraint=eastwest;" parent="2" vertex="1">
                    <mxGeometry y="104" width="170" height="26" as="geometry"/>
                </mxCell>
                <mxCell id="40" value="email: String" style="text;strokeColor=none;fillColor=none;align=left;verticalAlign=top;spacingLeft=4;spacingRight=4;overflow=hidden;rotatable=0;points=[[0,0.5],[1,0.5]];portConstraint=eastwest;" parent="2" vertex="1">
                    <mxGeometry y="130" width="170" height="26" as="geometry"/>
                </mxCell>
                <mxCell id="41" value="logradouro: String" style="text;strokeColor=none;fillColor=none;align=left;verticalAlign=top;spacingLeft=4;spacingRight=4;overflow=hidden;rotatable=0;points=[[0,0.5],[1,0.5]];portConstraint=eastwest;" parent="2" vertex="1">
                    <mxGeometry y="156" width="170" height="26" as="geometry"/>
                </mxCell>
                <mxCell id="42" value="num_casa: String" style="text;strokeColor=none;fillColor=none;align=left;verticalAlign=top;spacingLeft=4;spacingRight=4;overflow=hidden;rotatable=0;points=[[0,0.5],[1,0.5]];portConstraint=eastwest;" parent="2" vertex="1">
                    <mxGeometry y="182" width="170" height="26" as="geometry"/>
                </mxCell>
                <mxCell id="43" value="complemento: String?" style="text;strokeColor=none;fillColor=none;align=left;verticalAlign=top;spacingLeft=4;spacingRight=4;overflow=hidden;rotatable=0;points=[[0,0.5],[1,0.5]];portConstraint=eastwest;" parent="2" vertex="1">
                    <mxGeometry y="208" width="170" height="26" as="geometry"/>
                </mxCell>
                <mxCell id="44" value="bairro: String" style="text;strokeColor=none;fillColor=none;align=left;verticalAlign=top;spacingLeft=4;spacingRight=4;overflow=hidden;rotatable=0;points=[[0,0.5],[1,0.5]];portConstraint=eastwest;" parent="2" vertex="1">
                    <mxGeometry y="234" width="170" height="26" as="geometry"/>
                </mxCell>
                <mxCell id="45" value="municipio: String" style="text;strokeColor=none;fillColor=none;align=left;verticalAlign=top;spacingLeft=4;spacingRight=4;overflow=hidden;rotatable=0;points=[[0,0.5],[1,0.5]];portConstraint=eastwest;" parent="2" vertex="1">
                    <mxGeometry y="260" width="170" height="26" as="geometry"/>
                </mxCell>
                <mxCell id="46" value="uf: String" style="text;strokeColor=none;fillColor=none;align=left;verticalAlign=top;spacingLeft=4;spacingRight=4;overflow=hidden;rotatable=0;points=[[0,0.5],[1,0.5]];portConstraint=eastwest;" parent="2" vertex="1">
                    <mxGeometry y="286" width="170" height="26" as="geometry"/>
                </mxCell>
                <mxCell id="47" value="cep: String" style="text;strokeColor=none;fillColor=none;align=left;verticalAlign=top;spacingLeft=4;spacingRight=4;overflow=hidden;rotatable=0;points=[[0,0.5],[1,0.5]];portConstraint=eastwest;" parent="2" vertex="1">
                    <mxGeometry y="312" width="170" height="26" as="geometry"/>
                </mxCell>
                <mxCell id="5" value="celular: String" style="text;strokeColor=none;fillColor=none;align=left;verticalAlign=top;spacingLeft=4;spacingRight=4;overflow=hidden;rotatable=0;points=[[0,0.5],[1,0.5]];portConstraint=eastwest;" parent="2" vertex="1">
                    <mxGeometry y="338" width="170" height="26" as="geometry"/>
                </mxCell>
                <mxCell id="6" value="Produto" style="swimlane;fontStyle=0;childLayout=stackLayout;horizontal=1;startSize=26;fillColor=none;horizontalStack=0;resizeParent=1;resizeParentMax=0;resizeLast=0;collapsible=1;marginBottom=0;" parent="1" vertex="1">
                    <mxGeometry x="300" y="210" width="140" height="234" as="geometry"/>
                </mxCell>
                <mxCell id="7" value="_id: ObjectId" style="text;strokeColor=none;fillColor=none;align=left;verticalAlign=top;spacingLeft=4;spacingRight=4;overflow=hidden;rotatable=0;points=[[0,0.5],[1,0.5]];portConstraint=eastwest;" parent="6" vertex="1">
                    <mxGeometry y="26" width="140" height="26" as="geometry"/>
                </mxCell>
                <mxCell id="8" value="nome: String" style="text;strokeColor=none;fillColor=none;align=left;verticalAlign=top;spacingLeft=4;spacingRight=4;overflow=hidden;rotatable=0;points=[[0,0.5],[1,0.5]];portConstraint=eastwest;" parent="6" vertex="1">
                    <mxGeometry y="52" width="140" height="26" as="geometry"/>
                </mxCell>
                <mxCell id="48" value="marca: String" style="text;strokeColor=none;fillColor=none;align=left;verticalAlign=top;spacingLeft=4;spacingRight=4;overflow=hidden;rotatable=0;points=[[0,0.5],[1,0.5]];portConstraint=eastwest;" parent="6" vertex="1">
                    <mxGeometry y="78" width="140" height="26" as="geometry"/>
                </mxCell>
                <mxCell id="49" value="especificacao: String?" style="text;strokeColor=none;fillColor=none;align=left;verticalAlign=top;spacingLeft=4;spacingRight=4;overflow=hidden;rotatable=0;points=[[0,0.5],[1,0.5]];portConstraint=eastwest;" parent="6" vertex="1">
                    <mxGeometry y="104" width="140" height="26" as="geometry"/>
                </mxCell>
                <mxCell id="50" value="unidade_medida: String" style="text;strokeColor=none;fillColor=none;align=left;verticalAlign=top;spacingLeft=4;spacingRight=4;overflow=hidden;rotatable=0;points=[[0,0.5],[1,0.5]];portConstraint=eastwest;" parent="6" vertex="1">
                    <mxGeometry y="130" width="140" height="26" as="geometry"/>
                </mxCell>
                <mxCell id="51" value="preco_unitario: Number" style="text;strokeColor=none;fillColor=none;align=left;verticalAlign=top;spacingLeft=4;spacingRight=4;overflow=hidden;rotatable=0;points=[[0,0.5],[1,0.5]];portConstraint=eastwest;" parent="6" vertex="1">
                    <mxGeometry y="156" width="140" height="26" as="geometry"/>
                </mxCell>
                <mxCell id="55" value="qtd_estoque: Number" style="text;strokeColor=none;fillColor=none;align=left;verticalAlign=top;spacingLeft=4;spacingRight=4;overflow=hidden;rotatable=0;points=[[0,0.5],[1,0.5]];portConstraint=eastwest;" parent="6" vertex="1">
                    <mxGeometry y="182" width="140" height="26" as="geometry"/>
                </mxCell>
                <mxCell id="9" value="categoria: Categoria" style="text;strokeColor=none;fillColor=none;align=left;verticalAlign=top;spacingLeft=4;spacingRight=4;overflow=hidden;rotatable=0;points=[[0,0.5],[1,0.5]];portConstraint=eastwest;" parent="6" vertex="1">
                    <mxGeometry y="208" width="140" height="26" as="geometry"/>
                </mxCell>
                <mxCell id="10" value="Categoria" style="swimlane;fontStyle=0;childLayout=stackLayout;horizontal=1;startSize=26;fillColor=none;horizontalStack=0;resizeParent=1;resizeParentMax=0;resizeLast=0;collapsible=1;marginBottom=0;" parent="1" vertex="1">
                    <mxGeometry x="300" y="40" width="140" height="78" as="geometry"/>
                </mxCell>
                <mxCell id="11" value="_id: ObjectId" style="text;strokeColor=none;fillColor=none;align=left;verticalAlign=top;spacingLeft=4;spacingRight=4;overflow=hidden;rotatable=0;points=[[0,0.5],[1,0.5]];portConstraint=eastwest;" parent="10" vertex="1">
                    <mxGeometry y="26" width="140" height="26" as="geometry"/>
                </mxCell>
                <mxCell id="12" value="descricao: String" style="text;strokeColor=none;fillColor=none;align=left;verticalAlign=top;spacingLeft=4;spacingRight=4;overflow=hidden;rotatable=0;points=[[0,0.5],[1,0.5]];portConstraint=eastwest;" parent="10" vertex="1">
                    <mxGeometry y="52" width="140" height="26" as="geometry"/>
                </mxCell>
                <mxCell id="14" value="Venda" style="swimlane;fontStyle=0;childLayout=stackLayout;horizontal=1;startSize=26;fillColor=none;horizontalStack=0;resizeParent=1;resizeParentMax=0;resizeLast=0;collapsible=1;marginBottom=0;" parent="1" vertex="1">
                    <mxGeometry x="170" y="560" width="140" height="156" as="geometry"/>
                </mxCell>
                <mxCell id="15" value="_id: ObjectId&#10;" style="text;strokeColor=none;fillColor=none;align=left;verticalAlign=top;spacingLeft=4;spacingRight=4;overflow=hidden;rotatable=0;points=[[0,0.5],[1,0.5]];portConstraint=eastwest;" parent="14" vertex="1">
                    <mxGeometry y="26" width="140" height="26" as="geometry"/>
                </mxCell>
                <mxCell id="16" value="num_venda: Number" style="text;strokeColor=none;fillColor=none;align=left;verticalAlign=top;spacingLeft=4;spacingRight=4;overflow=hidden;rotatable=0;points=[[0,0.5],[1,0.5]];portConstraint=eastwest;" parent="14" vertex="1">
                    <mxGeometry y="52" width="140" height="26" as="geometry"/>
                </mxCell>
                <mxCell id="17" value="data_hora: DateTime" style="text;strokeColor=none;fillColor=none;align=left;verticalAlign=top;spacingLeft=4;spacingRight=4;overflow=hidden;rotatable=0;points=[[0,0.5],[1,0.5]];portConstraint=eastwest;" parent="14" vertex="1">
                    <mxGeometry y="78" width="140" height="26" as="geometry"/>
                </mxCell>
                <mxCell id="53" value="itens: [Produto]" style="text;strokeColor=none;fillColor=none;align=left;verticalAlign=top;spacingLeft=4;spacingRight=4;overflow=hidden;rotatable=0;points=[[0,0.5],[1,0.5]];portConstraint=eastwest;" parent="14" vertex="1">
                    <mxGeometry y="104" width="140" height="26" as="geometry"/>
                </mxCell>
                <mxCell id="54" value="cliente: Cliente" style="text;strokeColor=none;fillColor=none;align=left;verticalAlign=top;spacingLeft=4;spacingRight=4;overflow=hidden;rotatable=0;points=[[0,0.5],[1,0.5]];portConstraint=eastwest;" parent="14" vertex="1">
                    <mxGeometry y="130" width="140" height="26" as="geometry"/>
                </mxCell>
                <mxCell id="18" value="Fornecedor" style="swimlane;fontStyle=0;childLayout=stackLayout;horizontal=1;startSize=26;fillColor=none;horizontalStack=0;resizeParent=1;resizeParentMax=0;resizeLast=0;collapsible=1;marginBottom=0;" parent="1" vertex="1">
                    <mxGeometry x="560" y="210" width="140" height="364" as="geometry"/>
                </mxCell>
                <mxCell id="19" value="_id: ObjectId" style="text;strokeColor=none;fillColor=none;align=left;verticalAlign=top;spacingLeft=4;spacingRight=4;overflow=hidden;rotatable=0;points=[[0,0.5],[1,0.5]];portConstraint=eastwest;" parent="18" vertex="1">
                    <mxGeometry y="26" width="140" height="26" as="geometry"/>
                </mxCell>
                <mxCell id="20" value="razao_social: String" style="text;strokeColor=none;fillColor=none;align=left;verticalAlign=top;spacingLeft=4;spacingRight=4;overflow=hidden;rotatable=0;points=[[0,0.5],[1,0.5]];portConstraint=eastwest;" parent="18" vertex="1">
                    <mxGeometry y="52" width="140" height="26" as="geometry"/>
                </mxCell>
                <mxCell id="21" value="nome_fantasia: String?&#10;" style="text;strokeColor=none;fillColor=none;align=left;verticalAlign=top;spacingLeft=4;spacingRight=4;overflow=hidden;rotatable=0;points=[[0,0.5],[1,0.5]];portConstraint=eastwest;" parent="18" vertex="1">
                    <mxGeometry y="78" width="140" height="26" as="geometry"/>
                </mxCell>
                <mxCell id="56" value="cnpj: String" style="text;strokeColor=none;fillColor=none;align=left;verticalAlign=top;spacingLeft=4;spacingRight=4;overflow=hidden;rotatable=0;points=[[0,0.5],[1,0.5]];portConstraint=eastwest;" parent="18" vertex="1">
                    <mxGeometry y="104" width="140" height="26" as="geometry"/>
                </mxCell>
                <mxCell id="65" value="email: String" style="text;strokeColor=none;fillColor=none;align=left;verticalAlign=top;spacingLeft=4;spacingRight=4;overflow=hidden;rotatable=0;points=[[0,0.5],[1,0.5]];portConstraint=eastwest;" parent="18" vertex="1">
                    <mxGeometry y="130" width="140" height="26" as="geometry"/>
                </mxCell>
                <mxCell id="66" value="logradouro: String" style="text;strokeColor=none;fillColor=none;align=left;verticalAlign=top;spacingLeft=4;spacingRight=4;overflow=hidden;rotatable=0;points=[[0,0.5],[1,0.5]];portConstraint=eastwest;" parent="18" vertex="1">
                    <mxGeometry y="156" width="140" height="26" as="geometry"/>
                </mxCell>
                <mxCell id="67" value="num_casa: String" style="text;strokeColor=none;fillColor=none;align=left;verticalAlign=top;spacingLeft=4;spacingRight=4;overflow=hidden;rotatable=0;points=[[0,0.5],[1,0.5]];portConstraint=eastwest;" parent="18" vertex="1">
                    <mxGeometry y="182" width="140" height="26" as="geometry"/>
                </mxCell>
                <mxCell id="68" value="complemento: String?" style="text;strokeColor=none;fillColor=none;align=left;verticalAlign=top;spacingLeft=4;spacingRight=4;overflow=hidden;rotatable=0;points=[[0,0.5],[1,0.5]];portConstraint=eastwest;" parent="18" vertex="1">
                    <mxGeometry y="208" width="140" height="26" as="geometry"/>
                </mxCell>
                <mxCell id="69" value="bairro: String" style="text;strokeColor=none;fillColor=none;align=left;verticalAlign=top;spacingLeft=4;spacingRight=4;overflow=hidden;rotatable=0;points=[[0,0.5],[1,0.5]];portConstraint=eastwest;" parent="18" vertex="1">
                    <mxGeometry y="234" width="140" height="26" as="geometry"/>
                </mxCell>
                <mxCell id="75" value="municipio: String" style="text;strokeColor=none;fillColor=none;align=left;verticalAlign=top;spacingLeft=4;spacingRight=4;overflow=hidden;rotatable=0;points=[[0,0.5],[1,0.5]];portConstraint=eastwest;" parent="18" vertex="1">
                    <mxGeometry y="260" width="140" height="26" as="geometry"/>
                </mxCell>
                <mxCell id="78" value="celular: String" style="text;strokeColor=none;fillColor=none;align=left;verticalAlign=top;spacingLeft=4;spacingRight=4;overflow=hidden;rotatable=0;points=[[0,0.5],[1,0.5]];portConstraint=eastwest;" parent="18" vertex="1">
                    <mxGeometry y="286" width="140" height="26" as="geometry"/>
                </mxCell>
                <mxCell id="77" value="cep: String" style="text;strokeColor=none;fillColor=none;align=left;verticalAlign=top;spacingLeft=4;spacingRight=4;overflow=hidden;rotatable=0;points=[[0,0.5],[1,0.5]];portConstraint=eastwest;" parent="18" vertex="1">
                    <mxGeometry y="312" width="140" height="26" as="geometry"/>
                </mxCell>
                <mxCell id="76" value="uf: String" style="text;strokeColor=none;fillColor=none;align=left;verticalAlign=top;spacingLeft=4;spacingRight=4;overflow=hidden;rotatable=0;points=[[0,0.5],[1,0.5]];portConstraint=eastwest;" parent="18" vertex="1">
                    <mxGeometry y="338" width="140" height="26" as="geometry"/>
                </mxCell>
                <mxCell id="23" value="" style="endArrow=diamondThin;endFill=1;endSize=24;html=1;exitX=0.5;exitY=0;exitDx=0;exitDy=0;entryX=0.25;entryY=0;entryDx=0;entryDy=0;" parent="1" source="2" target="14" edge="1">
                    <mxGeometry width="160" relative="1" as="geometry">
                        <mxPoint x="120" y="390" as="sourcePoint"/>
                        <mxPoint x="280" y="390" as="targetPoint"/>
                        <Array as="points">
                            <mxPoint x="75" y="220"/>
                            <mxPoint x="205" y="220"/>
                        </Array>
                    </mxGeometry>
                </mxCell>
                <mxCell id="30" value="1" style="edgeLabel;html=1;align=center;verticalAlign=middle;resizable=0;points=[];" parent="23" vertex="1" connectable="0">
                    <mxGeometry x="-0.9366" y="1" relative="1" as="geometry">
                        <mxPoint x="11" as="offset"/>
                    </mxGeometry>
                </mxCell>
                <mxCell id="31" value="0..*" style="edgeLabel;html=1;align=center;verticalAlign=middle;resizable=0;points=[];" parent="23" vertex="1" connectable="0">
                    <mxGeometry x="0.7937" y="-1" relative="1" as="geometry">
                        <mxPoint x="16" as="offset"/>
                    </mxGeometry>
                </mxCell>
                <mxCell id="25" value="" style="endArrow=diamondThin;endFill=1;endSize=24;html=1;exitX=0.75;exitY=0;exitDx=0;exitDy=0;entryX=0.5;entryY=0;entryDx=0;entryDy=0;" parent="1" source="6" target="79" edge="1">
                    <mxGeometry width="160" relative="1" as="geometry">
                        <mxPoint x="430" y="360" as="sourcePoint"/>
                        <mxPoint x="440" y="550" as="targetPoint"/>
                        <Array as="points">
                            <mxPoint x="405" y="190"/>
                            <mxPoint x="470" y="190"/>
                            <mxPoint x="470" y="530"/>
                            <mxPoint x="470" y="520"/>
                        </Array>
                    </mxGeometry>
                </mxCell>
                <mxCell id="34" value="1..*" style="edgeLabel;html=1;align=center;verticalAlign=middle;resizable=0;points=[];" parent="25" vertex="1" connectable="0">
                    <mxGeometry x="-0.8827" relative="1" as="geometry">
                        <mxPoint x="5" y="10" as="offset"/>
                    </mxGeometry>
                </mxCell>
                <mxCell id="35" value="0..*" style="edgeLabel;html=1;align=center;verticalAlign=middle;resizable=0;points=[];" parent="25" vertex="1" connectable="0">
                    <mxGeometry x="0.8603" y="-2" relative="1" as="geometry">
                        <mxPoint x="17" y="22" as="offset"/>
                    </mxGeometry>
                </mxCell>
                <mxCell id="26" value="" style="endArrow=diamondThin;endFill=1;endSize=24;html=1;entryX=0.25;entryY=0;entryDx=0;entryDy=0;exitX=0.25;exitY=0;exitDx=0;exitDy=0;" parent="1" source="10" target="6" edge="1">
                    <mxGeometry width="160" relative="1" as="geometry">
                        <mxPoint x="120" y="130" as="sourcePoint"/>
                        <mxPoint x="280" y="130" as="targetPoint"/>
                        <Array as="points">
                            <mxPoint x="335" y="20"/>
                            <mxPoint x="280" y="20"/>
                            <mxPoint x="280" y="170"/>
                            <mxPoint x="335" y="170"/>
                        </Array>
                    </mxGeometry>
                </mxCell>
                <mxCell id="32" value="0..*" style="edgeLabel;html=1;align=center;verticalAlign=middle;resizable=0;points=[];" parent="26" vertex="1" connectable="0">
                    <mxGeometry x="0.8069" relative="1" as="geometry">
                        <mxPoint x="-25" y="11" as="offset"/>
                    </mxGeometry>
                </mxCell>
                <mxCell id="37" value="1" style="edgeLabel;html=1;align=center;verticalAlign=middle;resizable=0;points=[];" parent="26" vertex="1" connectable="0">
                    <mxGeometry x="-0.8179" relative="1" as="geometry">
                        <mxPoint y="10" as="offset"/>
                    </mxGeometry>
                </mxCell>
                <mxCell id="27" value="" style="endArrow=diamondThin;endFill=1;endSize=24;html=1;entryX=0.5;entryY=0;entryDx=0;entryDy=0;exitX=0.5;exitY=0;exitDx=0;exitDy=0;" parent="1" source="18" target="6" edge="1">
                    <mxGeometry width="160" relative="1" as="geometry">
                        <mxPoint x="320" y="190" as="sourcePoint"/>
                        <mxPoint x="480" y="190" as="targetPoint"/>
                        <Array as="points">
                            <mxPoint x="630" y="170"/>
                            <mxPoint x="370" y="170"/>
                        </Array>
                    </mxGeometry>
                </mxCell>
                <mxCell id="33" value="0..*" style="edgeLabel;html=1;align=center;verticalAlign=middle;resizable=0;points=[];" parent="27" vertex="1" connectable="0">
                    <mxGeometry x="0.6484" y="-1" relative="1" as="geometry">
                        <mxPoint y="-9" as="offset"/>
                    </mxGeometry>
                </mxCell>
                <mxCell id="36" value="1" style="edgeLabel;html=1;align=center;verticalAlign=middle;resizable=0;points=[];" parent="27" vertex="1" connectable="0">
                    <mxGeometry x="-0.9231" y="1" relative="1" as="geometry">
                        <mxPoint x="11" as="offset"/>
                    </mxGeometry>
                </mxCell>
                <mxCell id="79" value="ItemVenda" style="swimlane;fontStyle=0;childLayout=stackLayout;horizontal=1;startSize=26;fillColor=none;horizontalStack=0;resizeParent=1;resizeParentMax=0;resizeLast=0;collapsible=1;marginBottom=0;" vertex="1" parent="1">
                    <mxGeometry x="400" y="620" width="140" height="104" as="geometry"/>
                </mxCell>
                <mxCell id="80" value="num_item: Number" style="text;strokeColor=none;fillColor=none;align=left;verticalAlign=top;spacingLeft=4;spacingRight=4;overflow=hidden;rotatable=0;points=[[0,0.5],[1,0.5]];portConstraint=eastwest;" vertex="1" parent="79">
                    <mxGeometry y="26" width="140" height="26" as="geometry"/>
                </mxCell>
                <mxCell id="81" value="quantidade: number" style="text;strokeColor=none;fillColor=none;align=left;verticalAlign=top;spacingLeft=4;spacingRight=4;overflow=hidden;rotatable=0;points=[[0,0.5],[1,0.5]];portConstraint=eastwest;" vertex="1" parent="79">
                    <mxGeometry y="52" width="140" height="26" as="geometry"/>
                </mxCell>
                <mxCell id="83" value="produto: Produto" style="text;strokeColor=none;fillColor=none;align=left;verticalAlign=top;spacingLeft=4;spacingRight=4;overflow=hidden;rotatable=0;points=[[0,0.5],[1,0.5]];portConstraint=eastwest;" vertex="1" parent="79">
                    <mxGeometry y="78" width="140" height="26" as="geometry"/>
                </mxCell>
                <mxCell id="85" value="" style="endArrow=diamondThin;endFill=1;endSize=24;html=1;exitX=0.5;exitY=0;exitDx=0;exitDy=0;entryX=0.25;entryY=0;entryDx=0;entryDy=0;" edge="1" parent="1" source="14" target="79">
                    <mxGeometry width="160" relative="1" as="geometry">
                        <mxPoint x="240" y="630" as="sourcePoint"/>
                        <mxPoint x="400" y="630" as="targetPoint"/>
                        <Array as="points">
                            <mxPoint x="240" y="490"/>
                            <mxPoint x="430" y="490"/>
                        </Array>
                    </mxGeometry>
                </mxCell>
                <mxCell id="86" value="0..*" style="edgeLabel;html=1;align=center;verticalAlign=middle;resizable=0;points=[];" vertex="1" connectable="0" parent="1">
                    <mxGeometry x="500" y="630" as="geometry">
                        <mxPoint x="-85" y="-25" as="offset"/>
                    </mxGeometry>
                </mxCell>
                <mxCell id="103" value="" style="shape=stencil(lZ3bkiQ3jkS/Rq9lwTvxPLv7HzJTz0g2s2pZS7OXv19yNVlZ5R55KL1J3UA2I4IEAQfg+K785dcfv//ly3f5+vW3b1///uW/f/rhtx+/K//2Xc4//fzjl28//bb+67vy79+Vv/z167cvf/v29Z8///D7///y/Zbc//WfX/9r/8L//K6X30bbSvn633/9QX4r/f//5D9+l//HTz9/kp/9s3x6i0TykVW+XPj78Vn+ehsoP4bKp0ry/fN6Urx1XH8dKn9NlL8+y8+3gespTeX5/Rf5/XF4/7mrfGV5eT/9beLzpqny/3qiV/L1s3x7G4Hyl8pn/P1L1lPf+vgzv18ff/JKXr5XeWv4fvT9l7cL11Pl/ee3hvL9UvmLz2/5LJ/w99dqQ+VTJvki33edX9hv5XH6PsgXlI/PzxsPA3Mrvj5mF/EGu6e+1SLiuZD4+Lz4+RZw1uvjb5/iHT5Ve0tDxCvszPZWpogn/PX2+dcHrr3pPTHQrDV91IGnpL9lFc9gFPpbVfEEX7XrHhtvF7zIrkdk/QE86vqxJuIdFvP+ZE/xCht4vTddTIIXub7K5/3e8Hisbx4iTjtyvuUk4rQj135tIk47cj7e20O84o6cj6/yFKcdua7tIuK0I9fBHyJe8debLqaA4Yi3mUQ8w68vm3jpamgXbBuqD0tO0ZLvuh4y8ks+TB6M9rozxKs4/P66k/7UepK/T5Rft7i9HzizS752lQf7tOSnPi85vcsnSPr7FU7K9jkukSebs+Sn7p9J66+Pa+/DyaX99n6WPhgG/v1QQ0Jnd/t8WeSD1tNurCYcxyU/1YbjeezqBS6nl/ZbV7+CneQlP7LK03rWHZRUns7jUPvQeX+Ox7XwB+Xn44L9w/LFfp/Wv2IqWz/Jh3r5h+8VGvUd5afJw35bMao5AfR9dwz8Z/bDirGTrYflu+1nCrLyze+zvH8vkrco4vA+V1Sg+weDxKpRU0fPZJmbrOu5aD3tETM/7dWk3+9vTe1bh/22/V118zIFocst/Lye+tiw9/LrPIbIV3reqX5kRQ97+T/y/teFBu+nXGr/CwbpS17OY0YQoCR9/xntVTHUI+N+KB51P/7gXt7u93VA4fyWaigM+g9LXu47BuVK0/fzbmDu5e1+TI8g6ZW8oHgXgk5l6P48gAx2H12PB3ol33Q9ZK9KPNzfpzz5h0u+F5En0Kaa/3/h+VryEiBfDwfhlXzoesifr0kjuwvj9SUf+r0arT9rOHWhf1iLoX78foq+/8Trr2r/3wOUV/KCeq/zC/u5NkOZHwHNK/kweVq/ASbrgxAM1hVle/+A9/JDUWy2h9Xuo4z2oc7HcfogT+dlKsp/kI/HX/9h+WrrofcTlgXB+LRZ/J4xPm3mH2a0Py2pvcqIcy55e17yN1rS+27dp3BfNPMn39Mur+Sbrp9g3SUvWFF+GIB7+eL3OyWhlnzT5x30forGvxn9w1bVH84I6y35ofs56H0u91H9sYt+v6n9LHheWlf7zP7bkm9d5QltHno/lscDvZJvup5M72dqFqTwfp7u35I/1iw+LY8L8JW82LeC8UK/NF5Y8oSvmz0pDwftXj5pPFseANgreTmPBe+vnh85y6d8wPtc8h6PwPvsRb8X46W96nmpuH+6nceKSdjeHH3G9Mk7fPYBC6f1dL1PK79Py6A0Trh0zysQ/tCH2reG9nzJ9yHy+Lw3eBTuh6n+TMekfJ/6/jufr9D4aKB/vuQtWUd41LgUDxyck7J4YaC/Nyy+nvh9h9mHif7wku8qT3jvyGr/45F2fyUvWfZA/GHJy/kNvK9HsaoCrkpZCuqgX5hvWgrT8uYUIo2qRz5xjDQM099ZHHropodsp3HoqzVFxRPXEi0FDUsyxm2jWzVOftxsrxT0X2DPYwzNuu/cDJiipaBQUEVfa8wHlPlBodJhtjzqUiA0ZcRjAe8KDeGgpaBFHg3946XQRaFjFcxSCFMo8KWnIYQ7hwJ7aSlICJHYBi8F8VnSQKM3DYR/plFeKfiSyG1fCgrjTTyiM2sCfymQ4VsKLVSB9tI0zysFptJmsSMaiHVOs3wb3ILzMKuWYC0Fii5n1ds8X2iXpqUHNp5Kb6lZ1WLiL9217C+/f5lXCpKB3iEOvaV3j+KDAj70MmSypIqVlHM+MIN3hYao6lJQlKij2znD3lJHnGsp6L/ARzQu20sTM49LQTJf25UBcx9JU+/bN6FSkmSx2oXgUlgJ41IgbywMjS0JywHCioSXAuVfomhVaMl47S4FuXaXAm2+sAivMMSxFEaoAhVqLYVoqkCVrVENVOAqmrCocyngkqyccSd+WEFxhYqBwFLQQL49rph7habVckuBQuGlICeuNMTulkKdqkCGbClIFWfpiB4tBf3SHeGa6La93/3MVwqKp3BBZHQNaApHfEtBIspnjuyVghSALgXCwJaCuHBlYh1ljIfZelcIvB+WQkmqgF96aBqzch5wKYj1rgkLiWLoQy+FSa91WiVaRqhwKcjWqIXN/dStURn8WwoCZleudlsK3RTIhVsKcmXVhvjxUtD6voYx0FYIVaCM2lKQCpLaHxHFvYLXk/bHFfNKQTCBygHHVghVQFPpNauDT5zFcXUijrkUxFmvhzNthVQ10PcOQ7raxScuDAq8+EuH+t4tsREIjbIaV4csBcmm73wSP4PCpRXPQ7ouxVqWBnm6+5+QiqR2+nJaotm5vtpqmtvACHx/OVkSo4Lx3rvxrhCY9ti7T8rODvY+NAjqia+gUG+9cyZ4H2pTQC8xrL2gnEyfbKbOyQ83fZ0Dua0gS2rsME29FfvZGotCP92KqjCOS5JnOPg/U0sulgL60q4QvL2nFgmMi91K64AYh906rYmH6xD2zV5VAa3G1FBxFKz02d6JKHDqbSnIEV0KBOluh0kUGl9yU731pUDVekvhEoXOR3SobR3j5FbKnbVhZHZcteWJgb6loN8hOOIY6mzMiwPqof7P5IzFDiCku46rGqNbO17m19rV053v7dCvFMRhmoVPXNfE+yxYeeux5awcZjX1pSej/Ts+liVxF9dSkLhsKRxAAf0One/panvpEO4WRWjnxIKzsDbWeXBcs1ZgzWAIK1nr6IU9MPuvP7+l9ROYTzBvPbgqbAOulyogHNp18633RtHr2gjifAd3W6+9KQFENPTIpnVGBbcCrBMsqe8YmGpaVkhch208KakYGlsGZ12W6dWe5YlmZli5QgQig/v6qKpABQvrghIsPhhl3rnarAr4lqpiLTtA4Iy21HztEITeUrak4sVl0cs9EsP0DIvuFS6NaYLbzbuFfvup4b12iwd2fEqlINaasb8cLWk8UrMf9wb9C0OLYQ+7r3etBn/CL/cK1h6zHU1WKHaCyLh6wdX2G6nn27D1JzJ3r1B09wXXzHSrCVkK5AqswFAKMJ5u4CsFCRWDs1kruG22JCpeWOGzWrKBcM5SyGaNKTO6IvpqD02lTm3a9h5cyzls8w0ufrYG/+3KUnV1v3loapdpzc70QcH612Jwgaw1AO9bkZ6hmF1i0oRmxDfroiYj0KzGa/vvtDUuxSmWAjkbzWpCgiHaamjljhC4L0EgrGdIca8wNDMaHa13tcrmnerhVo9sr5WiptrMCDAjRa124rg6shZzmDoeUW/n2XEUKeSbhyaWppoUp9gK3FElWEs05nq5tPon3pvMbxVKaPVPcFFVmWbI3lOfrxQkobBDO2orHGaM6yMhdq/QNV8WTHzwTM1+jDjoLVn+eJcCUKudMwBl9PlKMdeYm0WKWz7udtnFEFkVqEaq+LXL/T27X3aYAjUgh51pji2XgkYcB4Vp3sxBYWjG4qzg3wEVulb/nBUERYjMZGFNwcrgOq8n78cHBULKn40iHxRot2Yr5glG1Z6txB9xCnpL181DZ2LrCPO9E3pkadqZPigM7efaz0CEEV1LC/ZbYoYStd5c/Lxrck2BAr9kPahbgf6FYtEu76VkVVjBberpbi/hv5DMkKVHoPZKQa+sxEw3l11Zh+yuBYqHHIpi/cGt8NZJEhe22gyFc4Nb24cW821ckbnQqsrTVWKdQjNOPHEmzyR3gh1MRq7s/p8nzj1hrpkT348VC8/xgHTur1p16OdANN2YHXalLvIvagKBqXSs03XXGiM/paZAODtmnvYh3WD8mrNiDJYUQNv5Dzrwen6XPFI9aX3J5DLnpKH5LGymNebcBe5EhWX7ueBVdmksNdmdtfrjneKC82KdYDMj3n7prTS5h8eYLHZSD9cvvSm7rQLsgxXG7L4N2G+XlnFNpvqw9e9WFfx97fQLBMCswHxMPL+WRRoTY7pLUfYxMEF/KUozGNaxOHlwrH+plz8aVkkYc8GSJxfcyukHt9Kmm/ICpE7UQvRR2KOxPHvBor6k9nkwf3BSZHBkBI0Nhdu9kWivxG0dGesks57fnYSh+ETvu5Hwvs4arQ/uTbBgfTDVUNY01i7KQXmphV3yFPxkddJ3Cgn5m8W/6sHxnp7HHoinZwVk+om/XIqWOtsflx9on7P6A0sew9UbeSpxcnlGoe/kkRrtRp6q8Vy+YS31nTxhSdkK5SpT093IU8bnTp4SDS5fDnz/Ls/+sMpn9Ofv5Jl/3eXZHur3Sgf7o+eR+dqzMVGmw36QPsFnju+V/ekqT/581vtlyfP3Emy0BaZV811NMMpLiqexP2ZMAUueqvaz+gONSd5t/kPjhsJsTBnM2251TJv7Bt+Py/P+UXlubbqTpxRbVmbY1hGvsPu9Hag3bT80pHYzyKsxqbn5A5ubif0Bkyc8we73dqDe1KrkxvMrihaD7MwwpR4UQ2xMhVUU+93NFfj7Eh+1jOfRsjmN8fGimZMlT/FL0fi3ca+4P++FGWPDf9qF+81SpzXQ/y8aLy95Sl6Z/1YnZzS0eebJzfdK3jqMeN6LMtuO0/1lPVLszytz08kein9eT/Nz9P1wBUFWBL2e7KGc98rF7EXx7XpIKms8vuQJf7PzUivGy8WYiHkQgzHxVY7frYyrHhLQ2kJRme/F8OGa8b62+TaViR6stqIecsk2CSBhWeadPNtnlb/w/i1axFBP83/keUtg/9SdPMXjtv4yMaVV9PyWyVTB6m8XtldF7U9hvK6ov124WM3yx6Uz1bSexyVPrYpF8bTCVG1F2Y4Kd/ra/VjaYT6VMkXWw/yxMHmqjrL5dUseqeIVTyvlEO8r28cp/hX7Vtj+ZGPezIf7WphhC1NyZcU/C1MRWzxVmFrH4otyHb6vy9N9dydP+d9stDrB1Ps38tS4dSdPBBy2/sxtjHfyPD9QmWq5LPpOnvENl8eaHWOm7gf82eUP8bjIc12gxbN71AOeX2kr2hlwPr/CLFUP8bXgz5sqlf1VWU854c+h8tRMYHhX5nyEzxfNp98X+XTCG02emn18/dch3hf/J1886sQo39j/MTxhE7jxfsgqT/f13e8f5rV2lT/sn0vlOV5Tlr552P+yP4/ySkw4T/jwtOdFf1La1xKTIhTNXyfuLbuTP8SDth6Or/15OZ+l7zMO+JV+r8C2Y98PJ/lh+4HvL9/PbP9vziOfLzuPnC+7OY/8vEYhSQV2hrekebi/lO6UG9Etf3E+j/Z++Pd1cgav3/Cxw/spxqXK7//Py0u8s+0/xmvZ7qMDntlUnu2J4KuZS3GLUTRy2WvRQtzD/X4nz/GyE2sy/pPNnyF/299n4dFDip8fRlka3+qBKt4nYbRDPku5UJmvz/J9R39Y5U/+tsuzP6/yp3hBGiGO8YjLH+4LkT/FU+qfn+I1lT/Fgy7P+TIlS2QyXccr0un+HSp/yHdLPM6cH47P5FP9xlB5xqsFPy+HUXVGDVkOeHvOKs/2SuxbqQd7VU2e8W3Ffyp2yBebvML1xkXJzPcsOsQzdb+1A76qBKbM3WOTewrTohX1h8vgUVfGj8qkf9UmxzDnX7X9NrEezNrnljzFmzaJ8IC338n/qd8/5At8UgvnI6r6SzvfQa2nNtmaCT+ti6dyvVBV/2HJ4yg5W3/hTlitT648qqhqPcAxXyaUMsd8nE7O5nqzoh3Yx3yi4NubehT9VZ38zbMRjJi6cv2e5Ucqj7Y2f7LyaGKrN9g0pZzPlfUwO8KdPI5yVfuzZ/txfmeo/OF+LCrP+TuJFyr7S0Xr7SvX39r92HjUp+WvG/dz2X266U9RXic5MZ55J8/7R9fDFIP+vPkQH1Wr/+H+LK3HK9hf5vVCTIFl+7Od/Cutp2KyTcPTNtErx3ey39oJTy4qz/WKyp7bDvU/Eu8c6/1cnvpNLB451iu6/KH+x+SpvsvinTZP67H6z0O8I78fh34HqSdpccqnWH0s73+JdzqPDrZ6oc6DrmwSZ+d8isVHPR38DaknfJIi/TH851C/7fLs793Jc/zl8mwPVZ7rB+7kkZXE5Ln+/06e/T2X5/oilef+iDv5g/8mkwW5v+NOnvCHO3ne/yrP/S938vz+Xf7gX4n8yd/T989Mb1av20/5LIm/nrMYX9kf67c61ENmlSe8zuznONWThMlzvajcF8d+N7l/j/10OpkyHe4XqWfY/YBcH2L9jFxPpf25Gev5k+bflzzlK5PmB0dBe5LsffJoX+MGGkwYbERWo6I/7/2nFe150vhoMNd70vt6NPy+Sf3h0Q/90UqSzrx0l9YPLHmK1y5ltB08EsP7qZn70vhJBg/E8MmsTFlq/eDzwv6RS/HemfD+svXv/n3uH88qz/3sUg85mZPJSAFnxv2TjMya6xuTxoMz4/dN2i82efbHHR/Fge/C+CLIP0x6X0wezZ3VP5+nejCl7ma+Dqv/nMwYnfU8Th4VZPHykmf/Wezb7Ad/VeppN7c545/C18HUntX4Rgba56r1GJv1G+67pnjF5Pqipv2VM5g4VO/Tyf2V3fh2At9n1/t0Mv/GMC5W7p+ySQtPnvZb+an40pLHCZLG58n5iFB/I9g+p8voPBNuiJTsDTED1nNI8wcFShnc0oShT3ZHREagYCpGX3j4FyxtE0xDk+rNd6B7LzUFfk8seE7cyrPm0jCG0YSlHDe0eRfmalPcHB5SuKH+uxgdTMa4y9vb+xOC+YBy0Qs2EhNg1JsPR4jQJnl0CkZ66G5M4IcYyIkquWnrhgrzqKBkmwcFp/M8KDhh6FHBzzRmNpz0NDE0dN0YMsTykpHnJW7mM28nMrL37GaeogoE3xfL90ZG/oPdHmWMu1ig0mxrFM7wdQ259qRbgoiG+hjBE+7L1CTonkPLChI1buZj+tKhaangITmb7tnImCnOr5cW8gfPtd2U1d0UqFIiG4cpt95Vn1DA3AnVimGCk0HVJgMFdw/ekpMTnHlLf07x4y3BOjVM3lK4k4N1SxKf6Rl8BkJHjKkZCV8wSWQz1rWtQFT6Pjmlo7/UjDdlE90fBg7YM9D2btY5fJofUDWVvScU0Gv1sQwdz0PrNwMHCLxrPmrlMDRh3FDpU7pnj8ewh6Yj+kwPvivwmNo94sMnRRyGiGRVIBeuJxslxCM+9iAUHyJC/0K+madBIU2/G49Bl+IeF2MDOHDkjdM9D54k5ITSPNFyD9WxsT1IBdzsw03kAujd9tJEI9BtRmBw9c4ebiRviemZuk3D3iNcwRg/00MfFMgT6GFD1A6jte6GTBEkuTMm9gwUcAwjIToN7yrmkTEqs0k1bcgUuT+jWYTCONGmEbUl0YfbM9HstVLl7VLQD8el9sPmr+6pVIQthSbj9swonk3nY3to802jTz5civNu1AoF4BvelWfghPp8r9f+4KyT1XgSYn8MOOA7zKmYfnCN7AzbS4mncl434wDojtsYg02DpN0a2XijA3kmwgp1JjeyrZcod9xk5s2oesfNgc56VMtldJ4sWu0ZOFkYNgduHiZPO3zN6c5ohqdXvBTDwuNZeB7x3UhYih+2ay7PwCmr27G2dCmGje2ZPIr0ZjTvhVUy2yW0tCeV0W0Pz3izKWLfhvHzARpsjGMogrUuAOokCxvNMLiVI8YNFzbO8h1qvXfynMeeK7sy4xrPoYbvChVRhzCoZVQ2AjbwYhNc878gEyAOjNUxLeWeT0uSHqLB019i2pe+eIjI1KzReda7KnDZko9uP8+rF894+cpoKl2BB8fdKDS+UO4U0LZOI5utGD/ENHbswqOqp6JwvfCVNW/4ftHchxIu7OiUTGVYBVniYdihAfguqaUPF8apyhxDYYBUYxLHHS1Y1TRmRcPKrDvf03FTh44HyBKpu5D+sCSrvCegfCt8/nCtsDEOTSe0zLOHwsiOE/t8ofmHdiG+tLeGtZ+g3xrW/xZY3+/bu07MKYZNXKoTI8V9RJ0SlC8U5VxkMOcJSnxQoFStW77a2WoYZlx57HlMDfEr9937LVq5UCamGoHasJIlprVKcWteTOvFqmz5pm2+wvHDVHyp8rQd98gOdJxhgFRlfrvthhZVIOx+Q5nyli4Ec56Tfj8ooCHrN5yZuDW6kU5ykVAYMFiYJT1sHl/hssxn1uddYbDl6+pK77QkHaCmVqMMjuOaRlmFqdLDZgoWzqFsJGaqAu6lZmyYjP5E1aRLOVy7VXHvpYCuQ9VwoHDmdSmI+1MOdslb7CtvDethXgr4DEb6uxTQehe1GuXgtxqYs2lDeUlSd18Ols+JJjJ798aUVA7ezB01CH6HrBdKSSeMTM80k7PvSp9QBUochY2jyky3Hpd+uMz9J7tc0Qg4yS496yffFQZWtUzLcGTOx22gUTiBeAD4nEZqxL7GHGo1ckUzM4e26WSmGZhWR5p5Tt9SkAKPZ+vsK9xbJk9m7vybzb40zzqdVX2+fJhFamQez/GAr7IDyg7EbBvT2rcSl+dO479MgZWbM2umaSngbrWK9jQx7T+txD4dTlzSXFbimQXTml4SD3GZl36HxF0se4hhqAJ5AvNSzzh17DPZuaykCuTCLQXJ4idm+hoWWiYOaYbFcalhLLoUxPdOPLxgmCFLnE54QsofFMhvXQriwqWCZmZYtV3igYKjaw4lZfQ1RrMvnTE8HlYQuxQICBlV0wmJSz093bwU8EtXMwJcjT2MRyoxb9lS0Ic+DG52ZskLvZlhrTDp4t1q3ODBWylZVRjn8JMVVGHr4ZIXLhqmhh2XYnxMnTsuS5RxmVBYLyHWUnUrjRq4niWvvY1og7thOGyC+7ReZm6dseKxjlm+bhmyzoVdw2Yn4UXbu4IrXAHbu8GfSB2x5HUWFV7LvRn3COaVNpOAQDfoaPeql0FFC7HklfsIveZu3Ds8Kqf7bCDeD9lm8fD5SsotUzED1a3Xkkd5d/OK6qnwULnOMIW2JwlKRItI9Z4MKOAI15daDwWPDl7yYk8Kt+4Nm+WBVDdtGDCCWc9m55Gp41o3tAkvvNa0d7gg8N+aBoHcSrsn8en6ySFtVvpUcP97hXLBAHBP4tP9RtCAl0zzaOhmXPrs+DWbjZgxlnsyfT3lqXizJV8POdMtKfdXxuzXkk/6++TPNLMnTB3drNstM3Vi2GwI3P/V/A0ejVjN38hMXTn1fB3lFWRB2KdaL+1RXmfN4H30nKz3QZ56dLqWCGX0B3YGrak8/X7TbCtT39VqswzQ36tV33/C81Wt9TGh/a/ORY/pt5o1I8i9m9W4CC6mSk2K9/Ko4Xpp/H9h5VG9FBPn0StLXhJph1F1oQggg8nFgNiLqY+mxl8XUxFMzaRfTE009P1wf7E3/iUePWeQKjeeFyvmTExVZcmqxKNXrJcy8ag6m5137Aadag9xVGbW+OLQC2rZi8PoyMvtG6Wqi1VBsz+Ww9LCiD84N0JFjGYz56s8xVPZOvcajwIYCkBy1mKFx03jX+yWbzbbnam/mnGdMbVn1fudC/qcq7zzKBWDvHh0pM+mYcR4Hw99XpRPmvnq3Iefbn6f5C/FBI/yWfEWitdSqH04yleTJ2qiUH+Ya+z2JBr9Xgd5qSvseB6X/KX7n4qi0tD79ChfbP1MqKGlmkjtn7rvB4rfl3y15yWiFeOJOLz/pvdvR38pNS214J7e1KwyFf3tZB2JHevlU9X9fKCOq7qedqKV0ZpR9P9T0XiBRy8mn73O1H0+W5z3p7FJVLS3yTKfXLaSkpU18v5JWp/EVNYpOV6K8tYofFi/cc0d3s/1CHc/yNP5vax0lWuUbbQ1lz/66gk9DAdjsd5TYztuFLHWxoauuSEJDSNNqwzlgz6NAxpxeevjZDfJ2nrYag6/dOmQmw/JdLxdXbCBazdioIEWvFvL04FrLWv+CtkM9LhOLMFpWvM2mbPCOvkYnNO7f+Jd3jS0nwzFWOcvI0lGloQd4dW6TTFOt3rGdDG5jV6DmzMOKRLFzKeL40QNU5bh55ELOpL0RAksXdSJcbysYUHKh5Fx+rzcoGlliakcRmiKm5xOI/60sqCefl/eP7dZGVVLaof3o7BfP4x8V5ikI25pZBzbkcf3I2FBYkryu5GqVAprIy+OI399RC3iPArLJaZzsBEKu8aOR+4ITH4cAVpUnkfcyDWxcUIeEWDyhCNZJfLG5XgkkcBsB9I1ddvzaQSNplkyejtm33I+vE8pDHqS4L7Yb2HrIRzgbmQ6j+zWNMvp93XE6Gn9EnZseR6Z4uvB9Q//Xn9mJMvT4v1xebRXLk/341l+/ccv3//24+//89ef/vGPX3/79vXvXz7+/V+/fvvyt29f//nzD+9/9OuP3//yZf3f/wE=);lineShape=1;" vertex="1" parent="1">
                    <mxGeometry x="150" y="530" width="420" height="230" as="geometry"/>
                </mxCell>
            </root>
        </mxGraphModel>
    </diagram>
</mxfile>